<svg id="Layer_1" data-name="Layer 1" xmlns="http://www.w3.org/2000/svg" viewBox="0 0 46.42 51.39"><defs><style>.cls-1{fill:#47d6d4}.cls-2{fill:#3c3ba9}</style></defs><path class="cls-1" d="M35 26.58s-2.62 16.75 1.51 18.13 5.79 3.13 5.98 5.29-9.63.38-11.69-3.5-5.5-4.75-4.32-6.19S30.21 38 32 39.64s.37-8.81.27-9S33 26 35 26.58z"/><path class="cls-2" d="M43.1 51.39h-2.89a1 1 0 110-2h2.89a1.33 1.33 0 001.32-1.32v-8.65a4.84 4.84 0 00-4.81-4.78h-1.29a4 4 0 00-.59 0 1 1 0 01-1.06-1v-4.23a1.57 1.57 0 00-1.51-1.58 1.7 1.7 0 00-1.16.48 1.67 1.67 0 00-.5 1.19v11a1 1 0 11-2 0V29.56a3.71 3.71 0 011.1-2.67 3.83 3.83 0 012.62-1.06 3.58 3.58 0 013.45 3.58v3.23h.94a6.85 6.85 0 016.81 6.77v8.66a3.32 3.32 0 01-3.32 3.32z"/><path class="cls-2" d="M32.51 49.18a1 1 0 01-.71-.3l-5.23-5.23a3.71 3.71 0 010-5.26 3.6 3.6 0 015 .1l1.67 1.67a1 1 0 010 1.41 1 1 0 01-1.42 0l-1.69-1.67a1.58 1.58 0 00-2.18 0 1.68 1.68 0 000 2.35l5.27 5.27a1 1 0 01-.71 1.71z"/><circle class="cls-2" cx="36.95" cy="50.39" r="1"/><path class="cls-1" d="M19.9 7.05a4.85 4.85 0 01.27 2 30.1 30.1 0 00.36 7.22c.56 2.35 2 4.65 4.34 5.42.66.22 1.49.43 1.64 1.11.21.92-1.09 1.6-1.07 2.54a9.43 9.43 0 00-6.14-2.86 11 11 0 01-3.55-.48c-2-.89-2.81-3.32-2.79-5.49a11.38 11.38 0 011.72-5.89c.87-1.41 2.48-4.09 4.41-4.09a.86.86 0 01.81.52z"/><path class="cls-2" d="M25.29 25.79a1 1 0 01-.27-2 4.76 4.76 0 00.53-.19 8.5 8.5 0 001.31-.6 8.61 8.61 0 003.85-5.38 8.63 8.63 0 00-1.11-6.45 8.65 8.65 0 00-9.14-3.87 7.56 7.56 0 00-1.4.43 7.4 7.4 0 00-1.39.65A8.37 8.37 0 0015 11a8.5 8.5 0 00-1.16 2.7 8.63 8.63 0 000 3.75 1 1 0 01-.76 1.2 1 1 0 01-1.19-.76 10.34 10.34 0 011.41-8 10.26 10.26 0 013.31-3.31 9.53 9.53 0 011.71-.81 10 10 0 011.71-.52 10.65 10.65 0 0111.24 4.76 10.62 10.62 0 011.36 8 10.56 10.56 0 01-4.73 6.63 9.75 9.75 0 01-1.61.82 5.51 5.51 0 01-.75.26.84.84 0 01-.25.07z"/><path class="cls-2" d="M25.55 18.67a1 1 0 01-.52-.15 1 1 0 01-.33-1.37A2.86 2.86 0 0021.18 13a2.84 2.84 0 00-1.57 3.72 1 1 0 01-1.86.76 4.86 4.86 0 118.65.7 1 1 0 01-.85.49z"/><rect class="cls-2" x="15.64" y="1.82" width="4.25" height="5.46" rx="1.13" transform="rotate(-22.05 17.76 4.552)"/><rect class="cls-2" x="9.11" y="8.26" width="4.25" height="5.46" rx="1.13" transform="rotate(-67.05 11.233 10.993)"/><rect class="cls-2" x="31.19" y="17.61" width="4.25" height="5.46" rx="1.13" transform="rotate(-67.05 33.32 20.337)"/><rect class="cls-2" x="30.64" y="9.03" width="5.46" height="4.25" rx="1.13" transform="rotate(-22.05 33.385 11.166)"/><rect class="cls-2" x="24.22" y="2.49" width="5.46" height="4.25" rx="1.13" transform="rotate(-67.05 26.947 4.615)"/><path class="cls-1" d="M9.53 30.35S6 23.2 15.15 22L12 30.44z"/><path class="cls-1" d="M15.09 23.57c1.78-.36 1.83 1 2.06 2.31A10.13 10.13 0 0019 30.24a7.09 7.09 0 001.14 1.36c.42.34 1.25.48 1.51 1a.86.86 0 01-.12.87 3 3 0 01-1.32.92 5.05 5.05 0 01-2 .31s-4.88-.7-5.88-2.7c-.82-1.65-.16-4.23.49-5.83a4.67 4.67 0 011.73-2.39 2.06 2.06 0 01.54-.21z"/><path class="cls-2" d="M18.72 36.38a7.24 7.24 0 01-1.73-.2 7.35 7.35 0 01-2.45-1 7.59 7.59 0 01-2.4-2.45 6.69 6.69 0 01-.6-1.13 7 7 0 01-.4-1.31 7.74 7.74 0 010-3.42 7.48 7.48 0 01.74-2 5 5 0 01.33-.55 7.25 7.25 0 011.18-1.4 1.64 1.64 0 01.31-.28 5.49 5.49 0 011-.7 7.61 7.61 0 012.43-1 7.41 7.41 0 013 0l.34.07A7.85 7.85 0 0123 22.09l.11.07a7.5 7.5 0 012.31 2.38 6.47 6.47 0 01.6 1.14 6.61 6.61 0 01.4 1.31 6.12 6.12 0 01.14.84 2.16 2.16 0 010 .36 7.33 7.33 0 01-.19 2.14 7.21 7.21 0 01-1.05 2.46 7.46 7.46 0 01-2.44 2.4 6.79 6.79 0 01-1.13.6 8 8 0 01-1.29.4 7.47 7.47 0 01-1.74.19zm-.09-13.57a5.26 5.26 0 00-1.12.12 5.34 5.34 0 00-1.8.73 3.93 3.93 0 00-.7.5l-.08.07-.15.14a5.17 5.17 0 00-.9 1.08 3.22 3.22 0 00-.21.34 6.18 6.18 0 00-.58 1.5 5.63 5.63 0 000 2.55 4.86 4.86 0 00.28 1 4.7 4.7 0 00.45.82 5.53 5.53 0 001.79 1.84 5.21 5.21 0 001.82.77 5.63 5.63 0 002.55 0 6.08 6.08 0 001-.3 4.76 4.76 0 00.83-.44 5.66 5.66 0 001.82-1.79 5.19 5.19 0 00.56-1.1 5.12 5.12 0 00.23-.73 5.55 5.55 0 00.13-1.62v-.15a.24.24 0 000-.12 2.82 2.82 0 00-.09-.57 5 5 0 00-.29-1 4.23 4.23 0 00-.45-.84A5.57 5.57 0 0022 23.84l-.1-.07a6.11 6.11 0 00-1.85-.77l-.31-.06a5.24 5.24 0 00-1.11-.13z"/><path class="cls-2" d="M18.74 32.29A3.75 3.75 0 0115.29 30a3.73 3.73 0 012.05-4.86 3.73 3.73 0 012.86 0 3.73 3.73 0 01-.06 6.86 3.57 3.57 0 01-1.4.29zM18.09 27a1.74 1.74 0 00-.95 2.26 1.68 1.68 0 00.93.94 1.73 1.73 0 001.32 0 1.7 1.7 0 00.95-.93 1.72 1.72 0 000-1.32 1.8 1.8 0 00-.93-.95 1.75 1.75 0 00-1.33 0z"/><rect class="cls-2" x="14.05" y="18.75" width="3.01" height="3.87" rx=".8" transform="rotate(-22.05 15.547 20.69)"/><path class="cls-2" d="M13 25.21v.14l-.55 1.3a.88.88 0 01-.32.37.76.76 0 01-.73.05l-2.09-.88a.81.81 0 01-.42-1.05L9 24.8l.4-1a.8.8 0 011.05-.43l2.08.88a.79.79 0 01.47.58.7.7 0 010 .38z"/><rect class="cls-2" x="8.93" y="30.24" width="3.87" height="3.01" rx=".8" transform="rotate(-22.05 10.864 31.737)"/><rect class="cls-2" x="13.5" y="34.88" width="3.87" height="3.01" rx=".8" transform="rotate(-67.05 15.434 36.386)"/><path class="cls-2" d="M22.89 34.77l.85 2.09a.8.8 0 01-.44 1l-1.3.52a.8.8 0 01-1-.44l-.85-2.09a.81.81 0 01.07-.74.71.71 0 01.37-.31l1.29-.52a.81.81 0 011 .49zM28.61 32l-.26.62-.28.67a.8.8 0 01-1 .42l-2.14-.92a.9.9 0 01-.47-1.05l.48-1.12.07-.17a.81.81 0 011-.43l2.09.89a.8.8 0 01.49 1z"/><rect class="cls-2" x="24.66" y="23.86" width="3.87" height="3.01" rx=".8" transform="rotate(-22.05 26.595 25.373)"/><rect class="cls-2" x="20.1" y="19.24" width="3.87" height="3.01" rx=".8" transform="rotate(-67.05 22.037 20.747)"/><path class="cls-2" d="M8.89 31.92a6.16 6.16 0 112-12 1 1 0 01-.66 1.88 4.19 4.19 0 00-2.92.07 4.16 4.16 0 103.11 7.72 1 1 0 01.74 1.86 6.12 6.12 0 01-2.27.47z"/><rect class="cls-2" x="5.36" y="18.38" width="2.26" height="2.9" rx=".6" transform="matrix(.93 -.38 .38 .93 -6.97 3.89)"/><rect class="cls-2" x="1.88" y="21.81" width="2.26" height="2.9" rx=".6" transform="rotate(-67.05 3.01 23.257)"/><rect class="cls-2" x="1.52" y="27.02" width="2.9" height="2.26" rx=".6" transform="rotate(-22.05 2.96 28.146)"/><rect class="cls-2" x="4.95" y="30.49" width="2.9" height="2.26" rx=".6" transform="rotate(-67.05 6.4 31.629)"/><path class="cls-1" d="M4.4 15.2a1 1 0 01-1-1C3.08 4.86 11.13.31 11.48.12a1 1 0 011.35.4 1 1 0 01-.39 1.36C12.15 2 5.12 6 5.4 14.17a1 1 0 01-1 1zM7.11 37.4a8.19 8.19 0 01-7-4.14 1 1 0 011.74-1 6.2 6.2 0 005.28 3.14 1 1 0 010 2z"/></svg>