<svg id="Layer_1" data-name="Layer 1" xmlns="http://www.w3.org/2000/svg" viewBox="0 0 44.08 45.6"><defs><style>.cls-1{fill:#47d6d4}.cls-2{fill:#3c3ba9}</style></defs><ellipse class="cls-1" cx="35.61" cy="37.07" rx="2.92" ry="3.25"/><ellipse class="cls-1" cx="6.46" cy="7.84" rx="3.25" ry="2.92" transform="rotate(-79.22 6.46 7.84)"/><path class="cls-2" d="M36.54 41.49a5.1 5.1 0 115.1-5.1 5.11 5.11 0 01-5.1 5.1zm0-8.2a3.1 3.1 0 103.1 3.1 3.1 3.1 0 00-3.1-3.1zM7.64 12.55a5.1 5.1 0 115.1-5.1 5.11 5.11 0 01-5.1 5.1zm0-8.2a3.1 3.1 0 103.1 3.1 3.1 3.1 0 00-3.1-3.1zM22.09 34.63A12.66 12.66 0 1134.75 22a12.68 12.68 0 01-12.66 12.63zm0-23.32A10.66 10.66 0 1032.75 22a10.67 10.67 0 00-10.66-10.69z"/><path class="cls-2" d="M22.09 34.63c-3.38 0-5.94-5.44-5.94-12.66s2.56-12.66 5.94-12.66S28 14.75 28 22s-2.52 12.63-5.91 12.63zm0-23.32c-1.86 0-3.94 4.56-3.94 10.66s2.08 10.66 3.94 10.66S26 28.07 26 22s-2-10.69-3.91-10.69z"/><path class="cls-2" d="M22.09 28.62C15 28.62 9.43 25.7 9.43 22s5.57-6.68 12.66-6.68S34.75 18.24 34.75 22s-5.56 6.62-12.66 6.62zm0-11.3c-6.28 0-10.66 2.45-10.66 4.65s4.38 4.65 10.66 4.65S32.75 24.17 32.75 22s-4.38-4.68-10.66-4.68z"/><path class="cls-2" d="M22.09 34.39a1 1 0 01-1-1V10.31a1 1 0 112 0v23.08a1 1 0 01-1 1z"/><path class="cls-2" d="M23.09 34.39h-1.56a1 1 0 010-2h1.56a1 1 0 110 2zM40.52 30.75a1.09 1.09 0 01-.39-.08 1 1 0 01-.53-1.31 19.09 19.09 0 00-.13-15.08A1 1 0 0140 13a1 1 0 011.32.51 21.08 21.08 0 01.14 16.67 1 1 0 01-.94.57zM14.9 4.3a1 1 0 01-.36-1.94 21 21 0 0115.11 0 1 1 0 11-.72 1.87 19 19 0 00-13.67 0 .92.92 0 01-.36.07zM3.66 30.74a1 1 0 01-.92-.61 21.08 21.08 0 01.15-16.67 1 1 0 111.83.81 19.09 19.09 0 00-.14 15.08 1 1 0 01-.53 1.31 1.09 1.09 0 01-.39.08zM22.24 43H22a20.63 20.63 0 01-7.48-1.4 1 1 0 01.72-1.86A18.9 18.9 0 0022 41h.19a17.22 17.22 0 006.69-1.34 1 1 0 01.77 1.84 19.25 19.25 0 01-7.41 1.5z"/><path class="cls-1" d="M38.79 8.83a1.32 1.32 0 01.21 1.85v.06l-.9.89-.1.09-.16.13-.17.12a2.75 2.75 0 01-3.37-.39l-1.84-1.79-2.05-2a3.94 3.94 0 01-.31-5.25 1.26 1.26 0 01.24-.22A7.5 7.5 0 0132.9 1h.34a4 4 0 012.81 1.15l.17.17.17-.17.27-.25a5.62 5.62 0 00-.39 2.06 5.87 5.87 0 002.52 4.87z"/><path class="cls-2" d="M36.15 13.41a3.69 3.69 0 01-2.62-1.09l-3.84-3.83a5 5 0 01-.25-6.75l.21-.24A5 5 0 0132.79 0h.43a5 5 0 012.92 1 4.94 4.94 0 013.71-.94 1 1 0 01.83 1.14 1 1 0 01-1.14.8 2.91 2.91 0 00-2.34.64l-.38.36a1 1 0 01-.78.29 1 1 0 01-.73-.4l-.11-.14a2.89 2.89 0 00-2-.77h-.35a3 3 0 00-1.76.85l-.17.19a3 3 0 00.16 4l3.84 3.84a1.74 1.74 0 002.14.25l.3-.24 3.83-3.77a2.93 2.93 0 00.54-3.51 1 1 0 111.76-1 5 5 0 01-.89 5.89l-4.42 4.31a3.89 3.89 0 01-2.03.62z"/><path class="cls-1" d="M7.82 36.11a5.55 5.55 0 00-.4-2.06l.28.25.17.17.13-.17a3.89 3.89 0 012.81-1.16h.34a7.68 7.68 0 012.56 1.31 1.31 1.31 0 01.24.23 3.94 3.94 0 01-.32 5.25l-2.05 2-1.74 1.83a2.74 2.74 0 01-3.38.39L6.29 44l-.15-.14-.14-.05-.89-.89v-.06A1.31 1.31 0 015.29 41a5.9 5.9 0 002.53-4.89z"/><path class="cls-2" d="M7.92 45.6A3.71 3.71 0 016 45l-.56-.43-3.96-3.87a4.94 4.94 0 01-.88-5.88 1 1 0 111.75 1 3 3 0 00.53 3.51l4.17 4.09a1.72 1.72 0 002.09-.28L13 39.26a3 3 0 00.16-4l-.2-.23a3 3 0 00-1.81-.81h-.26a2.9 2.9 0 00-2 .77l-.11.14a1 1 0 01-.72.4 1 1 0 01-.78-.29l-.42-.39a2.9 2.9 0 00-2.31-.62 1 1 0 01-.31-2 5 5 0 013.76.93 4.87 4.87 0 012.91-.95h.36a4.94 4.94 0 013.17 1.43l.25.28a5 5 0 01-.25 6.76l-3.83 3.83a3.75 3.75 0 01-2.69 1.09z"/></svg>