<svg id="Layer_1" data-name="Layer 1" xmlns="http://www.w3.org/2000/svg" viewBox="0 0 47.96 44.81"><defs><style>.cls-1{fill:#47d6d4}.cls-3{fill:#3c3ba9}</style></defs><path class="cls-1" d="M25.55 16.16s-4.94 9.09 3.2 14.58-1.06 11.92-3.86 11.61 7.31.69 7.81-2-.44-5.25 1.63-6.5c-.37-.37-.19-2.69-.19-2.69s4.72-.56-3.94-3.37-4.65-11.63-4.65-11.63zM3.21 6.13s1.22-.28 1.22 3.41a3.44 3.44 0 003.18 3.68h.25s3.89 1.94 4 5.38-7.46 2.34-8 6S1.94 33.29 1 29.77-.12 3.74 3.21 6.13z"/><path d="M26.12 19.54s.36-3.13-.31-3.13-2.34 3.13-1.12 6.4 7.9 1.45 6.65 0-5 .05-5 .05z" fill="#389ad6"/><path class="cls-1" d="M11.4 19.36c0-1.38-.59-2.93 1.75-3h8.06a1.72 1.72 0 01.72.09.7.7 0 01.33 1C21 20.56 11.46 25 11.4 19.36zM26.72 42.12c.11.55-.73.8-1.36.82a108.81 108.81 0 01-13.51-.36V38.9s2.71.8 7.62-5c.31-.37.55 2.15.84 2.53 1.65 2.15 4.06 3.49 6.09 5.33a1 1 0 01.31.41s.01-.07.01-.05z"/><path class="cls-3" d="M32.61 23.39h-6.23a1 1 0 01-1-1v-2.77a1 1 0 012 0v1.77h2.82L26 17.16H12.47v4.76a1 1 0 01-2 0v-5.76a1 1 0 011-1h14.91a1 1 0 01.71.29l6.23 6.23a1 1 0 01.21 1.09 1 1 0 01-.92.62zM30 43.63H11.47a1 1 0 01-1-1V39a1 1 0 012 0v2.63H30a1 1 0 010 2z"/><path d="M32.22 27.88a1 1 0 01-1-1V24.5a1 1 0 012 0v2.38a1 1 0 01-1 1z" fill="#2a5082"/><path class="cls-1" d="M33.14 9.13h.12a2.21 2.21 0 012.43 2 2.19 2.19 0 01-.26 1.3 8.59 8.59 0 00-.1 8.55c1.09 1.93 2.4 4.45 4.83 4.8a4.43 4.43 0 002.84-.73c.55-.32 1.54-1.42 2.15-.6a1.16 1.16 0 01.1.91c-.57 2.94-2 3.27-4.91 4.05-5.2 1.4-12.11-1.26-14.1-6.51-1.64-4.3.76-9.9 3.94-12.51a6.22 6.22 0 012.96-1.26z"/><path class="cls-3" d="M36.14 31a1 1 0 010-2 9.85 9.85 0 000-19.7 9.87 9.87 0 00-9.84 9.86 8.83 8.83 0 002.18 6.18 2.7 2.7 0 003.67.62 3.31 3.31 0 001.59-3.08A4.48 4.48 0 0032.48 21l-.1-.11a3 3 0 01-.86-2.74A2 2 0 0133 16.82a7.47 7.47 0 01.76-.17c.06 0 5.73-.67 6.9 1.22a1.71 1.71 0 01-.18 2A13 13 0 0039 22.13a3.29 3.29 0 00-.09 2 1 1 0 01-1.92.54 5.35 5.35 0 01.17-3.33v-.09a14 14 0 011.6-2.43 15 15 0 00-4.66-.2 4.52 4.52 0 00-.53.11l-.12.05a2.75 2.75 0 00.46.79 6.46 6.46 0 011.74 2.86.48.48 0 010 .18 5.27 5.27 0 01-2.46 5C31.28 29 28.86 28.7 27 26.72a10.81 10.81 0 01-2.71-7.57A11.85 11.85 0 0136.1 7.33a11.85 11.85 0 010 23.7zm2.79-12.42s-.01.04 0 .03zM36.14 6a1 1 0 01-1-1V1a1 1 0 012 0v4a1 1 0 01-1 1zM43.44 7.83a1 1 0 01-.88-1.47l1.89-3.56a1 1 0 111.76.94L44.32 7.3a1 1 0 01-.88.53zM29.05 7.74a1 1 0 01-.89-.54l-1.83-3.58a1 1 0 111.78-.91l1.83 3.58a1 1 0 01-.43 1.34 1 1 0 01-.46.11z"/><path class="cls-1" d="M36 30.57c-.45 0 .08 2.4.1 2.62a9.55 9.55 0 01-.09 2c-.19 1.72 0 3.47-.31 5.17-.25 1.23-.9 2.65-2.38 2.5-3.24-.32.29-9.39.75-9.24s0-3.07 0-3.07z"/><path class="cls-3" d="M29.77 44.33a.84.84 0 01-.38-.08 1 1 0 01-.54-1.3l2.8-6.76a1 1 0 011.84.76l-2.8 6.76a1 1 0 01-.92.62z"/><path class="cls-3" d="M37.89 44.81h-3.78a2.54 2.54 0 01-2.54-2.54v-5.7a1 1 0 012 0v5.7a.54.54 0 00.54.54h3.78a.54.54 0 00.54-.54v-5.61a1.18 1.18 0 00-1.18-1.18h-1a1 1 0 010-2h1a3.19 3.19 0 013.18 3.18v5.61a2.54 2.54 0 01-2.54 2.54z"/><path class="cls-3" d="M36.13 35.48a3.21 3.21 0 110-6.42 1 1 0 010 2 1.23 1.23 0 00-1.21 1.21 1.21 1.21 0 001.21 1.21 1 1 0 010 2zM42.14 44.33a1 1 0 01-.93-.64l-2.9-7.57a1 1 0 01.58-1.29 1 1 0 011.29.57l2.89 7.6a1 1 0 01-.57 1.29.92.92 0 01-.36.04zM7.85 22.92a1 1 0 01-1-1v-9.38a1 1 0 011-1h16.09a1 1 0 110 2H8.85v8.38a1 1 0 01-1 1z"/><path class="cls-3" d="M4.42 26a1 1 0 01-1-1V9.11a1 1 0 011-1h19.52a1 1 0 010 2H5.42V25a1 1 0 01-1 1z"/><path class="cls-3" d="M1 31.25a1 1 0 01-1-1V5.68a1 1 0 011-1h17.94a1 1 0 010 2H2v23.57a1 1 0 01-1 1z"/><circle class="cls-3" cx="22.04" cy="5.54" r="1"/><path class="cls-1" d="M14.27 33.05a1.1 1.1 0 01.19 1.53 1.07 1.07 0 01-.14.16l-.84.76h-.1l-.14.11h-.16a2.4 2.4 0 01-3-.48l-1.5-1.66-1.65-1.87a3.53 3.53 0 010-4.64 1.9 1.9 0 01.21-.19 6.81 6.81 0 012.31-1h.3a3.5 3.5 0 012.42 1.15l.14.16.16-.14.25-.2a5.08 5.08 0 00-.45 1.8 5.17 5.17 0 002 4.51z"/><path class="cls-3" d="M11.93 37.09A3.41 3.41 0 019.35 36l-3.21-3.58a4.48 4.48 0 01.06-6.1l.24-.24a4.56 4.56 0 012.88-1.18h.4a4.44 4.44 0 012.53 1 4.49 4.49 0 013.36-.62 1 1 0 01-.41 1.95 2.51 2.51 0 00-2 .45l-.36.3a1 1 0 01-1.41-.1l-.13-.16a2.45 2.45 0 00-1.6-.8h-.2a2.66 2.66 0 00-1.68.65l-.18.18a2.49 2.49 0 000 3.36l3.21 3.54a1.42 1.42 0 001.74.29.82.82 0 01.26-.1l.16-.08 3.38-3a2.48 2.48 0 00.78-1.95 1 1 0 01.94-1.05 1 1 0 011.06.94 4.5 4.5 0 01-1.43 3.54l-3.63 3.16a.94.94 0 01-.35.2 1 1 0 01-.41.15 3.4 3.4 0 01-1.42.34z"/></svg>